<svg xmlns="http://www.w3.org/2000/svg" xmlns:xlink="http://www.w3.org/1999/xlink" width="40" height="50" viewBox="0 0 40 50"><defs><style>.a{fill:none;}.b{clip-path:url(#a);}.c{clip-path:url(#b);}.d{fill:#ec1b24;}.e{clip-path:url(#c);}.f{clip-path:url(#e);}.g{clip-path:url(#g);}.h{clip-path:url(#i);}.i{clip-path:url(#k);}</style><clipPath id="a"><path class="a" d="M32.5-29.167H11.667a.833.833,0,0,0-.833.833.833.833,0,0,0,.833.833H32.5a.833.833,0,0,0,.833-.833A.833.833,0,0,0,32.5-29.167Z"/></clipPath><clipPath id="b"><path class="a" d="M-190,1496H1250V-2959H-190Z"/></clipPath><clipPath id="c"><path class="a" d="M11.667-34.167H20A.833.833,0,0,0,20.833-35,.833.833,0,0,0,20-35.833H11.667a.833.833,0,0,0-.833.833A.833.833,0,0,0,11.667-34.167Z"/></clipPath><clipPath id="e"><path class="a" d="M32.5-22.5H11.667a.833.833,0,0,0-.833.833.833.833,0,0,0,.833.833H32.5a.833.833,0,0,0,.833-.833A.833.833,0,0,0,32.5-22.5Z"/></clipPath><clipPath id="g"><path class="a" d="M32.5-15.833H11.667a.833.833,0,0,0-.833.833.833.833,0,0,0,.833.833H32.5A.833.833,0,0,0,33.333-15,.833.833,0,0,0,32.5-15.833Z"/></clipPath><clipPath id="i"><path class="a" d="M32.5-9.167H11.667a.833.833,0,0,0-.833.833.833.833,0,0,0,.833.833H32.5a.833.833,0,0,0,.833-.833A.833.833,0,0,0,32.5-9.167Z"/></clipPath><clipPath id="k"><path class="a" d="M35.833-37.845V-50H0V-4.167H4.167V0H40V-33.678Zm-7.5-5.143,7.5,7.5,1.322,1.322H28.333ZM1.667-5.833v-42.5h32.5v8.822l-6.322-6.322H4.167v40ZM5.833-1.667v-42.5H26.667V-32.5H38.333V-1.667Z"/></clipPath></defs><g transform="translate(0 50)"><g class="b"><g class="c"><path class="d" d="M5.833-34.167h32.5V-22.5H5.833Z"/></g></g><g class="e"><g class="c"><path class="d" d="M5.833-40.833h20v11.667h-20Z"/></g></g><g class="f"><g class="c"><path class="d" d="M5.833-27.5h32.5v11.667H5.833Z"/></g></g><g class="g"><g class="c"><path class="d" d="M5.833-20.833h32.5V-9.167H5.833Z"/></g></g><g class="h"><g class="c"><path class="d" d="M5.833-14.167h32.5V-2.5H5.833Z"/></g></g><g class="i"><g class="c"><path class="d" d="M-5-55H45V5H-5Z"/></g></g></g></svg>