<svg xmlns="http://www.w3.org/2000/svg" xmlns:xlink="http://www.w3.org/1999/xlink" width="289.785" height="71.543" viewBox="0 0 289.785 71.543"><defs><style>.a{fill:none;}.b{fill:#ec1c24;}.c{fill:#231f20;}.d{clip-path:url(#a);}</style><clipPath id="a"><path class="a" d="M0,71.542H289.785V0H0Z"/></clipPath></defs><path class="b" d="M4.306,2.166a2.165,2.165,0,0,1-2.152,2.17A2.168,2.168,0,0,1,2.154,0,2.163,2.163,0,0,1,4.306,2.166" transform="translate(190.372 67.206)"/><path class="c" d="M214.29,12.384H210.6v-12h6.359l6.246,8.952h.374L223.5.387h3.687v12h-6.309l-6.271-8.952h-.394l.078,8.952Zm-168.872,0H41.762v-12h8.788c1.989,0,3.262.019,3.68.056A2.814,2.814,0,0,1,55.41.867,2.089,2.089,0,0,1,56.331,2a7.674,7.674,0,0,1,.248,2.282A8.993,8.993,0,0,1,56.426,6.2a1.889,1.889,0,0,1-.6.99,3.156,3.156,0,0,1-1.446.549,2.223,2.223,0,0,1,1.631.653,1.659,1.659,0,0,1,.372.83,18.956,18.956,0,0,1,.076,2.039v1.117H52.888V11.74a12.885,12.885,0,0,0-.058-1.415,1.5,1.5,0,0,0-.285-.661A.882.882,0,0,0,51.99,9.4a11.288,11.288,0,0,0-1.479-.064H45.418v3.044Zm0-8.995V6.34H50.5c.821-.023,1.394-.045,1.572-.06a.759.759,0,0,0,.433-.131.791.791,0,0,0,.327-.447,3.359,3.359,0,0,0,.1-.875,3.233,3.233,0,0,0-.1-.883.874.874,0,0,0-.382-.418,1.1,1.1,0,0,0-.452-.1c-.131-.015-.432-.019-.93-.026L50.5,3.389Zm-27.44,8.995H14.4v-12h6.581l3.551,7.794L28.056.387h6.557v12H31.028l.1-8.952h-.589l-4.5,8.952H23.025l-4.5-8.952h-.644l.1,8.952Zm107.651,0h-4.155l6.322-12h5.639l6.231,11.995h-4.118l-2.325-4.651h.026l-2.3-4.566h-.729l-2.289,4.566h.012l-2.315,4.651Zm-64.758,0H56.724l6.314-12h5.639L74.9,12.382H70.795l-1.018-2.038H61.89l-1.019,2.038Zm4.608-9.217-2.3,4.566H68.5L66.2,3.166Zm135.545,9.217a51.284,51.284,0,0,1-5.338-.182,2.726,2.726,0,0,1-2.549-2.008,16.781,16.781,0,0,1-.326-4.052,15.806,15.806,0,0,1,.326-3.917,2.722,2.722,0,0,1,2.549-2.01,76.414,76.414,0,0,1,10.614,0,2.758,2.758,0,0,1,2.558,2.01,17.966,17.966,0,0,1,.317,3.973,17.925,17.925,0,0,1-.317,4A2.763,2.763,0,0,1,206.3,12.2,50.708,50.708,0,0,1,201.024,12.383Zm-.017-9.217a23.169,23.169,0,0,0-3.451.142,1.189,1.189,0,0,0-.876.795,9.027,9.027,0,0,0-.208,2.422A8.028,8.028,0,0,0,196.58,8.1a1.4,1.4,0,0,0,1.314,1.046c.543.063,1.6.1,3.13.1,1.449,0,2.421-.028,2.89-.085a2.006,2.006,0,0,0,1.065-.347,1.248,1.248,0,0,0,.43-.709,7.955,7.955,0,0,0,.105-1.56,15.137,15.137,0,0,0-.081-1.893,1.953,1.953,0,0,0-.316-.916,1.311,1.311,0,0,0-.948-.476A27.665,27.665,0,0,0,201.007,3.166Zm-9.637,9.217h-3.812v-12h3.812v12Zm-9.944,0H177.6V3.45H172.3V.387H186.71V3.45h-5.285v8.932Zm-16.282,0c-2.312,0-3.9-.044-4.841-.136a5.829,5.829,0,0,1-2.174-.507,2.285,2.285,0,0,1-.975-.925,4.241,4.241,0,0,1-.419-1.6c-.048-.547-.072-1.539-.072-2.948,0-1.38.024-2.392.072-3.009a4.867,4.867,0,0,1,.309-1.44A2.641,2.641,0,0,1,159.061.336,35.035,35.035,0,0,1,165.185,0c1.531,0,2.655.031,3.344.092a5.738,5.738,0,0,1,1.674.4,2.365,2.365,0,0,1,1.145,1.166A5.9,5.9,0,0,1,171.68,3.9c0,.022,0,.078-.007.17s-.011.238-.018.417h-3.631a4.3,4.3,0,0,0-.075-.792.475.475,0,0,0-.206-.329,2.039,2.039,0,0,0-1.043-.276,25.444,25.444,0,0,0-2.55-.079c-1.179,0-1.924.019-2.344.059a2.059,2.059,0,0,0-.92.307,1.5,1.5,0,0,0-.445.893,11.373,11.373,0,0,0-.122,1.979,13.509,13.509,0,0,0,.094,1.925,1.3,1.3,0,0,0,.45.807,1.827,1.827,0,0,0,.961.312,19.512,19.512,0,0,0,2.345.078,25.869,25.869,0,0,0,2.769-.078A1.486,1.486,0,0,0,167.879,9a2.237,2.237,0,0,0,.336-1.426h3.627c.028.571.028.963.028,1.13a4.7,4.7,0,0,1-.413,2.169,2.486,2.486,0,0,1-1.769,1.194A22.261,22.261,0,0,1,165.144,12.383Zm-17.555,0c-1.328,0-2.481-.028-3.335-.081a11.623,11.623,0,0,1-2.039-.28A2.687,2.687,0,0,1,139.985,9.7a12.9,12.9,0,0,1-.161-1.292c-.023-.372-.033-1.262-.047-2.684V.215h3.67V5.729a15.584,15.584,0,0,0,.126,2.374,1.17,1.17,0,0,0,.9.931,13.97,13.97,0,0,0,3.075.21,19.8,19.8,0,0,0,2.586-.115,1.607,1.607,0,0,0,1.038-.427,1.319,1.319,0,0,0,.281-.55,9.2,9.2,0,0,0,.133-1.1l0-.092c.021-.489.038-.912.038-1.233V.215h3.646V5.729c-.031,1.759-.092,3.093-.172,3.756a2.889,2.889,0,0,1-1.447,2.207,4.533,4.533,0,0,1-1.93.551A40.918,40.918,0,0,1,147.589,12.383Zm-38.247,0a39,39,0,0,1-3.97-.14,5.076,5.076,0,0,1-1.934-.5,2.065,2.065,0,0,1-.935-1.012,5.508,5.508,0,0,1-.256-1.928V8.244h3.521c-.006.6.111.975.356,1.137a1.278,1.278,0,0,0,.675.209c.2.012.679.02,1.473.033l1.147.019c1.776-.007,2.666-.032,2.762-.035a2.572,2.572,0,0,0,.73-.134c.271-.115.409-.42.409-.906a.791.791,0,0,0-.28-.721,2.667,2.667,0,0,0-1.165-.194c-.427,0-1.271-.038-2.549-.095l-.293-.013-1.31-.061h-.008c-.748-.036-1.288-.061-1.592-.069a8.837,8.837,0,0,1-2.009-.245,2.215,2.215,0,0,1-1.1-.672,3.913,3.913,0,0,1-.672-2.584,4.205,4.205,0,0,1,.77-2.881A2.914,2.914,0,0,1,104.9.215,40.994,40.994,0,0,1,109.84.031a32.149,32.149,0,0,1,3.69.148,3.613,3.613,0,0,1,2.261.916A3.513,3.513,0,0,1,116.4,3.4v.572h-3.524a2.089,2.089,0,0,0-.085-.672.584.584,0,0,0-.254-.3,1.7,1.7,0,0,0-.831-.177c-.465-.037-1.378-.058-2.5-.058a14.681,14.681,0,0,0-2.821.156.756.756,0,0,0-.514.816.713.713,0,0,0,.514.771,36.548,36.548,0,0,0,3.85.207c1.862.067,3.2.14,3.867.212a4.158,4.158,0,0,1,1.549.455,2.139,2.139,0,0,1,.925,1.082,5.629,5.629,0,0,1,.28,1.976,5.548,5.548,0,0,1-.453,2.526,2.193,2.193,0,0,1-.961.913,4.794,4.794,0,0,1-1.7.4C112.971,12.348,111.572,12.383,109.342,12.383Zm-7.8,0H88.258v-12h13.2V3.2H91.816v1.74h9.157V7.592H91.816V9.51h9.73v2.872Zm-19.418,0h-3.82V3.45h-5.3V.387h14.4V3.45H82.129v8.932Zm-42.028,0H36.277v-12H40.1v12Zm-26.815,0H0v-12H13.186V3.2H3.562v1.74H12.7V7.592H3.562V9.51h9.724v2.872Z" transform="translate(61.952 59.159)"/><path class="b" d="M4.292,2.155A2.146,2.146,0,1,1,0,2.155a2.146,2.146,0,1,1,4.292,0" transform="translate(113.59 33.639)"/><path class="c" d="M7.817,5.477c0,.337-.019.775-.042,1.329a8.466,8.466,0,0,1-.13,1.086,1.333,1.333,0,0,1-.283.551,1.839,1.839,0,0,1-1.033.443,20,20,0,0,1-2.6.108A14.254,14.254,0,0,1,.674,8.772,1.5,1.5,0,0,1,0,8.368v3.612c.161.019.319.019.464.032q1.17.086,3.318.085a37.063,37.063,0,0,0,4.094-.148,5.019,5.019,0,0,0,1.938-.522,2.921,2.921,0,0,0,1.422-2.21c.083-.58.142-1.836.178-3.738V0h-3.6Z" transform="translate(272.184 35.077)"/><path class="a" d="M0,71.542H289.785V0H0Z"/><g class="d"><path class="c" d="M0,8.479H3.136V0H0Z" transform="translate(274.564 34.711)"/><path class="c" d="M22.166,3.606H7.064a15.357,15.357,0,0,1-2.043-.1A1.869,1.869,0,0,1,4.1,3.188a1.373,1.373,0,0,1-.4-.79A7.444,7.444,0,0,1,3.561.747c0-.278.005-.529.02-.747H0V.5a21.272,21.272,0,0,0,.089,2.43A7.139,7.139,0,0,0,.384,4.421,2.773,2.773,0,0,0,2.559,6.355a8.958,8.958,0,0,0,1.657.232c.6.043,1.552.063,2.877.063H25.73V0H22.166Z" transform="translate(183.594 40.407)"/><path class="c" d="M0,11.929H3.146V0H0Z" transform="translate(211.727 35.244)"/><path class="c" d="M1.383,7.5a10.693,10.693,0,0,1-.058,1.347c-.08.44-.38.645-.888.645H0v2.155c.314.025.647.029.986.029a7.156,7.156,0,0,0,2.174-.264,1.943,1.943,0,0,0,1.078-.962,2.635,2.635,0,0,0,.233-.815,14.133,14.133,0,0,0,.058-1.679V0H1.383Z" transform="translate(216.309 40.191)"/><path class="c" d="M.975,16.79c-.308,0-.639,0-.975-.029V14.606H.425c.521,0,.8-.205.888-.645a10.345,10.345,0,0,0,.055-1.347v-7.5H4.52V8.306a.693.693,0,0,0,.21.286,4.262,4.262,0,0,0,2.376.4c.954,0,12.825-.069,14.385-.168l0-.049c-.014-.338-.031-.758-.031-1.289a8.564,8.564,0,0,1,.226-2.336,2.227,2.227,0,0,1,.846-1.179,2.964,2.964,0,0,1,.426-.247.3.3,0,0,1,.093-.035,1.3,1.3,0,0,1,.293-.115l.069-.021.02-.005c.018,0,.038-.008.044-.022h.046a6.548,6.548,0,0,1,.665-.165,19.783,19.783,0,0,1,3.2-.163h.032a19.624,19.624,0,0,1,3.2.163l.074.016a6.14,6.14,0,0,1,.6.149h.024a.194.194,0,0,0,.069.023l.018,0,.056.017a1.547,1.547,0,0,1,.308.119.307.307,0,0,1,.081.035,2.93,2.93,0,0,1,.435.247,2.262,2.262,0,0,1,.85,1.179,9.191,9.191,0,0,1,.218,2.336c0,.541,0,.968-.038,1.338,1.543.1,3.861.168,4.669.168,1.326,0,12.071-.134,12.387-.4a.947.947,0,0,0,.257-.471,6.243,6.243,0,0,0,.068-1.055V0h3.6V5.561a16.441,16.441,0,0,0,.13,2.291,1.128,1.128,0,0,0,.9.919,14.494,14.494,0,0,0,3.069.222,19.834,19.834,0,0,0,2.582-.108,1.829,1.829,0,0,0,1.037-.443,1.282,1.282,0,0,0,.287-.552,6.122,6.122,0,0,0,.118-1.085c.029-.459.043-.894.043-1.329V0h3.6V5.477c-.04,1.989-.1,3.177-.175,3.739a2.9,2.9,0,0,1-1.422,2.21,4.91,4.91,0,0,1-1.935.522,36.7,36.7,0,0,1-4.1.148c-1.419,0-2.528-.028-3.294-.085a13.255,13.255,0,0,1-2.018-.275l-.094-.026a3.265,3.265,0,0,1-.408-.132,3.879,3.879,0,0,1-.782.269c-.751.166-12.205.249-13.594.249a19.924,19.924,0,0,1-4.324-.327,2.481,2.481,0,0,1-1.314-.721,3.561,3.561,0,0,1-1.614.825l-.046.01-.1.018-.088.015a20.966,20.966,0,0,1-2.65.179H26.7a20.838,20.838,0,0,1-2.64-.179c-.066-.011-.122-.02-.179-.033a1.87,1.87,0,0,1-.293-.072,2.438,2.438,0,0,1-1.386-.763,2.45,2.45,0,0,1-1.309.721c-.917.228-12.3.327-14.047.327-.917,0-1.678-.028-2.326-.085v1.059c0,.775-.017,1.356-.05,1.679a2.543,2.543,0,0,1-.246.815,1.927,1.927,0,0,1-1.066.962A7.245,7.245,0,0,1,.975,16.79ZM25.3,5.843h0a1.094,1.094,0,0,0-.515.608A3.578,3.578,0,0,0,24.621,7.7c0,.187.009.354.019.516,0,.048.005.094.008.14a1.652,1.652,0,0,0,.335.857l0,0a1.073,1.073,0,0,0,.3.2A5.538,5.538,0,0,0,27.4,9.7a5.532,5.532,0,0,0,2.117-.282,1.145,1.145,0,0,0,.307-.2l.009-.007a1.749,1.749,0,0,0,.326-.857c.018-.19.027-.4.027-.656a3.5,3.5,0,0,0-.164-1.252,1.084,1.084,0,0,0-.516-.608h-.019a4.064,4.064,0,0,0-1.2-.234c-.267-.013-.565-.02-.884-.02s-.591.006-.878.02a4.1,4.1,0,0,0-1.2.234H25.3Z" transform="translate(112.714 35.077)"/><path class="c" d="M40.585,12.1a23.383,23.383,0,0,1-3.369-.18,3.373,3.373,0,0,1-1.619-.668,1.706,1.706,0,0,1-.22-.217,2.572,2.572,0,0,1-1.33.737c-.886.222-26.375.328-27.982.328a18.417,18.417,0,0,1-3.6-.25,2.982,2.982,0,0,1-1.7-.918,2.649,2.649,0,0,1-.614-1.3A14.035,14.035,0,0,1,0,7.139V0H3.6V7.067a6.266,6.266,0,0,0,.061,1.055.891.891,0,0,0,.269.471,4.382,4.382,0,0,0,2.391.4c1.143,0,26.772-.069,28.352-.168-.041-.431-.044-.934-.044-1.453a10.962,10.962,0,0,1,.083-1.6,2.842,2.842,0,0,1,.314-.987,2.431,2.431,0,0,1,1.616-1.253A16.212,16.212,0,0,1,40.576,3.2a19.48,19.48,0,0,1,3.188.163,3.865,3.865,0,0,1,1.671.609,2.242,2.242,0,0,1,.848,1.179A8.835,8.835,0,0,1,46.5,7.487c0,.841-.017,1.4-.052,1.77a4.231,4.231,0,0,1-.242,1.056,2.375,2.375,0,0,1-1.824,1.5A17.889,17.889,0,0,1,40.585,12.1Zm.008-6.508A5.828,5.828,0,0,0,38.5,5.83a1.075,1.075,0,0,0-.562.619A3.615,3.615,0,0,0,37.774,7.7a3.6,3.6,0,0,0,.141,1.186.99.99,0,0,0,.526.535,5.633,5.633,0,0,0,2.144.282,4.456,4.456,0,0,0,2.274-.379c.335-.254.5-.827.5-1.706A3.27,3.27,0,0,0,43.2,6.414a.933.933,0,0,0-.55-.572A5.515,5.515,0,0,0,40.593,5.589Z" transform="translate(223.279 35.078)"/><path class="c" d="M22.163,3.606H7.069a15.137,15.137,0,0,1-2.041-.1,1.774,1.774,0,0,1-.922-.322,1.444,1.444,0,0,1-.432-.79A9.077,9.077,0,0,1,3.566.747c0-.278,0-.529.008-.747H0V.5C0,1.58.03,2.388.079,2.934A7.508,7.508,0,0,0,.387,4.421,2.771,2.771,0,0,0,2.572,6.355a8.61,8.61,0,0,0,1.655.232q.869.065,2.866.063H25.739V0H22.163Z" transform="translate(61.84 40.407)"/><path class="c" d="M0,11.929H3.151V0H0Z" transform="translate(108.094 35.244)"/><path class="c" d="M0,11.929H3.144V0H0Z" transform="translate(89.95 35.244)"/><path class="c" d="M7.546.1A29.044,29.044,0,0,0,4.436,0H0V2.99H4.444a9.8,9.8,0,0,1,1.889.11.836.836,0,0,1,.457.437,2.58,2.58,0,0,1,.125.926,3,3,0,0,1-.107.944.815.815,0,0,1-.378.454A1.587,1.587,0,0,1,5.945,6c-.177.011-.675.023-1.5.023H0V9.011H4.474q2.1,0,2.88-.083a4.692,4.692,0,0,0,1.712-.447,2.352,2.352,0,0,0,.958-.9,6.8,6.8,0,0,0,.516-3.119,6.2,6.2,0,0,0-.609-3.224A3.26,3.26,0,0,0,7.546.1" transform="translate(95.368 37.792)"/><path class="c" d="M4.305,2.155A2.153,2.153,0,1,1,2.146,0,2.154,2.154,0,0,1,4.305,2.155" transform="translate(70.274 33.639)"/><path class="c" d="M4.3,2.155A2.149,2.149,0,1,1,2.151,0,2.15,2.15,0,0,1,4.3,2.155" transform="translate(75.168 33.639)"/><path class="c" d="M4.3,2.16A2.149,2.149,0,1,1,2.135,0,2.156,2.156,0,0,1,4.3,2.16" transform="translate(192.07 33.672)"/><path class="c" d="M4.3,2.16A2.151,2.151,0,1,1,2.141,0,2.157,2.157,0,0,1,4.3,2.16" transform="translate(196.955 33.672)"/><path class="c" d="M52.033,29.814V15.428L26.018,0,0,15.428V29.814L26.018,14.381Z" transform="translate(0 0)"/><path class="b" d="M52.033,29.813V15.432L26.018,0,0,15.432V29.813L26.018,14.381Z" transform="translate(0 20.373)"/><path class="c" d="M52.033,29.8V15.425L26.018,0,0,15.425V29.8L26.018,14.372Z" transform="translate(0 40.751)"/><path class="b" d="M6.955,3.569A3.529,3.529,0,0,1,3.474,7.141,3.529,3.529,0,0,1,0,3.569,3.527,3.527,0,0,1,3.474,0,3.527,3.527,0,0,1,6.955,3.569" transform="translate(22.539 64.401)"/><path class="c" d="M0,11.926H3.8V0H0Z" transform="translate(285.984 35.13)"/></g></svg>