<svg xmlns="http://www.w3.org/2000/svg" xmlns:xlink="http://www.w3.org/1999/xlink" width="240" height="40" viewBox="0 0 240 40"><defs><style>.a{fill:none;}.b{fill:#ec1c24;}.c{fill:#f7f7f5;}.d{fill:#f3f7f7;}.e{clip-path:url(#a);}.f{clip-path:url(#b);}</style><clipPath id="a"><path class="a" d="M0,0H13.661V13.886H0Z" transform="translate(0 0.032)"/></clipPath><clipPath id="b"><path class="a" d="M0,0H6.771V6.771H0Z" transform="translate(0.188 0.081)"/></clipPath></defs><circle class="b" cx="20" cy="20" r="20"/><path class="c" d="M10.338,3.286V.031S7.01,0,6.784,0A4.115,4.115,0,0,0,3.117,3.652V7.137H0v3.7H3.075V20H6.714V10.79H9.929l.409-3.611H6.756V4.528a1.23,1.23,0,0,1,1.2-1.26c.479,0,2.384.019,2.384.019" transform="translate(15 10)"/><g transform="translate(50)"><circle class="b" cx="20" cy="20" r="20"/><path class="d" d="M17.4,1.268A3.946,3.946,0,0,0,14.384,0C12.113.077,10,1.467,10.247,5.028c0,0-3.421,1.043-8.745-4.021,0,0-1.713,2.792,1.315,5.424a2.826,2.826,0,0,1-1.986-.4S.223,8.392,4.12,10.179c0,0-1.315.372-1.911,0,0,0,.347,2.507,3.847,3.1,0,0-1.8,1.787-6.057,1.738,0,0,8.852,4.53,14.99-1.291a12.5,12.5,0,0,0,3.775-9.7,3.911,3.911,0,0,0,2.06-1.8,8.051,8.051,0,0,1-2.308.385S20.13,1.6,20.255.411a4.921,4.921,0,0,1-2.855.857" transform="translate(10 12)"/></g><g transform="translate(100)"><circle class="b" cx="20" cy="20" r="20"/><g transform="translate(10 13)"><path class="c" d="M16.367,13.933H3.633A3.637,3.637,0,0,1,0,10.3V3.633A3.637,3.637,0,0,1,3.633,0H16.367A3.637,3.637,0,0,1,20,3.633V10.3A3.637,3.637,0,0,1,16.367,13.933ZM7.459,3.18v7.678l3.1-1.92,3.1-1.92L10.562,5.1Z"/></g></g><g transform="translate(150)"><circle class="b" cx="20" cy="20" r="20"/><g transform="translate(9 8)"><g transform="translate(0 0.044)"><path class="c" d="M15.617,22.6H6.98A6.989,6.989,0,0,1,0,15.616V6.98A6.988,6.988,0,0,1,6.98,0h8.636A6.988,6.988,0,0,1,22.6,6.98v8.635A6.989,6.989,0,0,1,15.617,22.6ZM6.98,2.519A4.466,4.466,0,0,0,2.519,6.98v8.635A4.467,4.467,0,0,0,6.98,20.079h8.636a4.467,4.467,0,0,0,4.461-4.463V6.98a4.466,4.466,0,0,0-4.461-4.461Z" transform="translate(0 0.179)"/></g><path class="c" d="M5.775,11.551a5.775,5.775,0,1,1,5.775-5.775A5.782,5.782,0,0,1,5.775,11.551Zm0-9.283A3.508,3.508,0,1,0,9.283,5.775,3.512,3.512,0,0,0,5.775,2.267Z" transform="translate(5.523 5.746)"/><path class="c" d="M1.953.976A.976.976,0,1,1,.976,0a.977.977,0,0,1,.976.976" transform="translate(16.389 4.434)"/></g></g><g transform="translate(200)"><circle class="b" cx="20" cy="20" r="20"/><g transform="translate(9 12)"><g transform="translate(0 0.192)"><path class="a" d="M0,0H13.661V13.886H0Z" transform="translate(0 0.032)"/><g class="e"><path class="c" d="M9.645,3.582l2-2.046A7.553,7.553,0,0,0,5.278.186,6.154,6.154,0,0,0,.105,5.533a7.613,7.613,0,0,0,1.608,6.2c1.135,1.227,2.521,2.156,5.464,2.156,3.08,0,6.686-2.542,6.476-8.279H6.882v2.7h3.859a3.538,3.538,0,0,1-3.269,2.721c-1.752.105-4.092-.464-4.556-3.269C2.572,5.677,3.393,3.276,5.924,2.9a4.657,4.657,0,0,1,3.72.686" transform="translate(0 0.032)"/></g></g><g transform="translate(15.041 3.335)"><path class="a" d="M0,0H6.771V6.771H0Z" transform="translate(0.188 0.081)"/><g class="f"><path class="c" d="M6.771,2.484H4.287V0h-1.8V2.484H0v1.8H2.484V6.771h1.8V4.287H6.771Z" transform="translate(0.188 0.081)"/></g></g></g></g></svg>