<svg xmlns="http://www.w3.org/2000/svg" xmlns:xlink="http://www.w3.org/1999/xlink" width="49.94" height="47.846" viewBox="0 0 49.94 47.846"><defs><style>.a{fill:none;}.b{clip-path:url(#a);}.c{clip-path:url(#b);}.d{fill:#ec1b24;}</style><clipPath id="a"><path class="a" d="M48.856-26.269a3.559,3.559,0,0,0,.906-3.671,3.56,3.56,0,0,0-2.892-2.438L34.778-34.135A1.579,1.579,0,0,1,33.588-35L28.182-45.957a3.56,3.56,0,0,0-3.212-2,3.559,3.559,0,0,0-3.211,2L16.352-35a1.581,1.581,0,0,1-1.191.865L3.069-32.377A3.557,3.557,0,0,0,.178-29.94a3.559,3.559,0,0,0,.906,3.671l8.749,8.528a1.583,1.583,0,0,1,.456,1.4L8.224-4.3A3.559,3.559,0,0,0,9.648-.8a3.552,3.552,0,0,0,3.772.273L24.234-6.209a1.583,1.583,0,0,1,1.472,0L36.521-.523a3.577,3.577,0,0,0,1.669.415,3.568,3.568,0,0,0,2.1-.688,3.559,3.559,0,0,0,1.424-3.5L39.651-16.34a1.582,1.582,0,0,1,.456-1.4ZM37.681-16,39.746-3.96a1.553,1.553,0,0,1-.629,1.547,1.558,1.558,0,0,1-1.665.121L26.637-7.979A3.6,3.6,0,0,0,24.97-8.39a3.588,3.588,0,0,0-1.667.412L12.49-2.292a1.559,1.559,0,0,1-1.666-.121,1.554,1.554,0,0,1-.629-1.547L12.26-16a3.581,3.581,0,0,0-1.03-3.17L2.48-27.7a1.55,1.55,0,0,1-.4-1.621A1.552,1.552,0,0,1,3.356-30.4l12.091-1.757a3.576,3.576,0,0,0,2.7-1.959l5.407-10.957a1.551,1.551,0,0,1,1.418-.881,1.553,1.553,0,0,1,1.419.881L31.8-34.115a3.575,3.575,0,0,0,2.7,1.959L46.583-30.4a1.552,1.552,0,0,1,1.276,1.077,1.552,1.552,0,0,1-.4,1.621L38.71-19.173A3.58,3.58,0,0,0,37.681-16Z"/></clipPath><clipPath id="b"><path class="a" d="M-590,1497H850V-2958H-590Z"/></clipPath></defs><g transform="translate(0 47.953)"><g class="b"><g class="c"><path class="d" d="M-5-52.953H54.94V4.893H-5Z"/></g></g></g></svg>