<svg xmlns="http://www.w3.org/2000/svg" xmlns:xlink="http://www.w3.org/1999/xlink" width="50" height="50" viewBox="0 0 50 50"><defs><style>.a{fill:none;}.b{clip-path:url(#a);}.c{clip-path:url(#b);}.d{fill:#ec1b24;}.e{clip-path:url(#c);}.f{clip-path:url(#e);}.g{clip-path:url(#g);}.h{clip-path:url(#i);}.i{clip-path:url(#k);}.j{clip-path:url(#m);}.k{clip-path:url(#o);}.l{clip-path:url(#q);}.m{clip-path:url(#s);}</style><clipPath id="a"><path class="a" d="M25-50A25.028,25.028,0,0,0,0-25,25.028,25.028,0,0,0,25,0,25.028,25.028,0,0,0,50-25,25.028,25.028,0,0,0,25-50ZM25-1.667A23.36,23.36,0,0,1,1.667-25,23.36,23.36,0,0,1,25-48.333,23.36,23.36,0,0,1,48.333-25,23.36,23.36,0,0,1,25-1.667Z"/></clipPath><clipPath id="b"><path class="a" d="M-990,1496H450V-2959H-990Z"/></clipPath><clipPath id="c"><path class="a" d="M25.833-28.316v-8.452A.833.833,0,0,0,25-37.6a.833.833,0,0,0-.833.833v8.452a3.329,3.329,0,0,0-2.382,2.382H15.833A.833.833,0,0,0,15-25.1a.833.833,0,0,0,.833.833h5.952A3.331,3.331,0,0,0,25-21.767,3.337,3.337,0,0,0,28.333-25.1,3.33,3.33,0,0,0,25.833-28.316ZM25-23.434A1.668,1.668,0,0,1,23.333-25.1,1.668,1.668,0,0,1,25-26.767,1.668,1.668,0,0,1,26.667-25.1,1.668,1.668,0,0,1,25-23.434Z"/></clipPath><clipPath id="e"><path class="a" d="M25-41.768a.833.833,0,0,0,.833-.833v-.833A.833.833,0,0,0,25-44.268a.833.833,0,0,0-.833.833v.833A.833.833,0,0,0,25-41.768Z"/></clipPath><clipPath id="g"><path class="a" d="M25-8.434a.833.833,0,0,0-.833.833v.833A.833.833,0,0,0,25-5.934a.833.833,0,0,0,.833-.833V-7.6A.833.833,0,0,0,25-8.434Z"/></clipPath><clipPath id="i"><path class="a" d="M43.333-25.934H42.5a.833.833,0,0,0-.833.833.833.833,0,0,0,.833.833h.833a.833.833,0,0,0,.833-.833A.833.833,0,0,0,43.333-25.934Z"/></clipPath><clipPath id="k"><path class="a" d="M7.5-25.934H6.667a.833.833,0,0,0-.833.833.833.833,0,0,0,.833.833H7.5a.833.833,0,0,0,.833-.833A.833.833,0,0,0,7.5-25.934Z"/></clipPath><clipPath id="m"><path class="a" d="M37.374-38.654l-.589.589a.832.832,0,0,0,0,1.178.831.831,0,0,0,.589.244.831.831,0,0,0,.589-.244l.589-.589a.832.832,0,0,0,0-1.178A.833.833,0,0,0,37.374-38.654Z"/></clipPath><clipPath id="o"><path class="a" d="M12.037-13.316l-.589.589a.832.832,0,0,0,0,1.178.831.831,0,0,0,.589.244.831.831,0,0,0,.589-.244l.589-.589a.832.832,0,0,0,0-1.178A.833.833,0,0,0,12.037-13.316Z"/></clipPath><clipPath id="q"><path class="a" d="M37.963-13.316a.832.832,0,0,0-1.178,0,.832.832,0,0,0,0,1.178l.589.589a.831.831,0,0,0,.589.244.831.831,0,0,0,.589-.244.832.832,0,0,0,0-1.178Z"/></clipPath><clipPath id="s"><path class="a" d="M12.626-38.654a.832.832,0,0,0-1.178,0,.832.832,0,0,0,0,1.178l.589.589a.831.831,0,0,0,.589.244.831.831,0,0,0,.589-.244.832.832,0,0,0,0-1.178Z"/></clipPath></defs><g transform="translate(0 50)"><g class="b"><g class="c"><path class="d" d="M-5-55H55V5H-5Z"/></g></g><g class="e"><g class="c"><path class="d" d="M10-42.6H33.333v25.833H10Z"/></g></g><g class="f"><g class="c"><path class="d" d="M19.167-49.268H30.833v12.5H19.167Z"/></g></g><g class="g"><g class="c"><path class="d" d="M19.167-13.434H30.833v12.5H19.167Z"/></g></g><g class="h"><g class="c"><path class="d" d="M36.667-30.934h12.5v11.667h-12.5Z"/></g></g><g class="i"><g class="c"><path class="d" d="M.833-30.934h12.5v11.667H.833Z"/></g></g><g class="j"><g class="c"><path class="d" d="M31.541-43.9H43.8v12.256H31.541Z"/></g></g><g class="k"><g class="c"><path class="d" d="M6.2-18.56H18.459V-6.3H6.2Z"/></g></g><g class="l"><g class="c"><path class="d" d="M31.541-18.56H43.8V-6.3H31.541Z"/></g></g><g class="m"><g class="c"><path class="d" d="M6.2-43.9H18.459v12.256H6.2Z"/></g></g></g></svg>